<svg xmlns="http://www.w3.org/2000/svg" viewBox="0 0 64 64" width="64" height="64">
  <!-- Sun -->
  <circle cx="24" cy="24" r="11" fill="#FFC107"/>
  <g stroke="#FFC107" stroke-width="3" stroke-linecap="round">
    <line x1="24" y1="5" x2="24" y2="9"/>
    <line x1="24" y1="39" x2="24" y2="43"/>
    <line x1="5" y1="24" x2="9" y2="24"/>
    <line x1="39" y1="24" x2="43" y2="24"/>
    <line x1="11" y1="11" x2="14" y2="14"/>
    <line x1="34" y1="34" x2="37" y2="37"/>
    <line x1="11" y1="37" x2="14" y2="34"/>
    <line x1="34" y1="14" x2="37" y2="11"/>
  </g>
  <!-- Cloud -->
  <path d="M46 48H22c-5.5 0-10-4.5-10-10 0-4.8 3.4-8.8 8.1-9.7C21.3 23 26 19 32 19c6.4 0 11.4 4.5 12.6 10.5C49.3 30 53 34.1 53 39c0 5-4 9-7 9z" fill="#90CAF9"/>
  <path d="M44 46H22c-4.4 0-8-3.6-8-8 0-3.9 2.8-7.1 6.6-7.8l1.3-.2.4-1.2C23.6 24.3 27.5 21 32 21c5.2 0 9.3 3.7 10.2 8.7l.3 1.5 1.5.2c3.7.5 6.5 3.7 6.5 7.6 0 3.9-3.1 7-6.5 7z" fill="#E3F2FD"/>
</svg>
